<?xml version="1.0" encoding="iso-8859-1"?>
<!-- Generator: Adobe Illustrator 19.0.0, SVG Export Plug-In . SVG Version: 6.00 Build 0)  -->
<svg xmlns="http://www.w3.org/2000/svg" xmlns:xlink="http://www.w3.org/1999/xlink" version="1.1" id="Capa_1" x="0px" y="0px" viewBox="0 0 359.887 359.887" style="enable-background:new 0 0 359.887 359.887;" xml:space="preserve" width="512px" height="512px">
<g>
	<g>
		<path d="M341.223,68.559c-9.728-10.752-24.064-15.872-38.4-15.36c0-14.336-5.632-28.16-15.872-38.4    c-20.992-20.48-54.272-19.456-74.752,1.536c-18.944,19.456-19.456,50.688-2.048,71.168L88.295,212.943    c-20.992-16.896-51.712-14.848-70.656,4.608c-9.728,10.24-14.848,23.552-14.848,37.376c0,14.336,6.144,27.136,15.872,36.864    c10.752,10.24,24.576,15.36,38.912,14.848c0,14.336,5.632,28.16,15.872,38.4c10.24,9.728,23.552,14.848,36.864,14.848    c13.824,0,27.648-5.632,37.888-15.872c18.944-19.456,19.456-50.688,2.048-71.168l121.344-125.952    c9.728,7.68,21.504,11.776,33.792,11.776c14.336,0,27.136-6.144,36.864-15.872c9.728-10.24,14.848-23.552,14.848-37.376    C357.095,91.087,350.951,78.287,341.223,68.559z M335.591,135.631c-7.68,8.192-18.432,12.8-29.696,12.8    c-11.264,0.512-22.016-4.096-30.208-11.776c-2.048-2.048-5.12-2.048-7.168,0l-128.512,133.12c-2.048,2.048-1.536,5.632,0.512,7.68    c16.896,16.384,17.408,43.52,1.024,60.416c-16.384,16.896-43.52,17.408-60.416,1.024c-9.728-9.216-14.336-22.528-12.8-35.84    c0-1.536-0.512-3.072-1.536-4.096s-2.048-1.536-3.584-1.536c-0.512,0-0.512,0-1.024,0c-13.312,2.048-26.624-2.048-36.352-11.264    c-8.192-7.68-12.8-18.432-12.8-29.696c0-11.264,4.096-22.016,11.776-30.208c16.384-16.896,43.52-17.408,60.416-1.024    c2.048,2.048,5.12,2.048,7.168,0l128.512-133.12c1.024-1.024,1.536-2.048,1.536-3.584c0-1.536-0.512-2.56-1.536-3.584    c-16.896-16.384-17.408-43.52-1.024-60.416c16.384-16.896,43.52-17.408,60.416-1.024c9.728,9.216,14.336,22.528,12.8,35.84    c0,1.536,0.512,3.072,1.536,4.096c1.024,1.024,2.56,1.536,4.608,1.536c13.312-2.048,26.624,2.048,36.352,11.264    c8.192,7.68,12.8,18.432,12.8,29.696C347.879,116.687,343.783,127.439,335.591,135.631z" fill="#d35400"/>
	</g>
</g>
<g>
</g>
<g>
</g>
<g>
</g>
<g>
</g>
<g>
</g>
<g>
</g>
<g>
</g>
<g>
</g>
<g>
</g>
<g>
</g>
<g>
</g>
<g>
</g>
<g>
</g>
<g>
</g>
<g>
</g>
</svg>
