<?xml version="1.0" encoding="iso-8859-1"?>
<!-- Generator: Adobe Illustrator 19.0.0, SVG Export Plug-In . SVG Version: 6.00 Build 0)  -->
<svg version="1.1" id="Layer_1" xmlns="http://www.w3.org/2000/svg" xmlns:xlink="http://www.w3.org/1999/xlink" x="0px" y="0px"
	 viewBox="0 0 512 512" style="enable-background:new 0 0 512 512;" xml:space="preserve">
<path style="fill:#55C6A1;" d="M511.999,255.406c0.144,64.931-23.883,124.266-63.632,169.489
	c-7.739,8.805-16.077,17.088-24.949,24.749c-0.966,0.844-1.943,1.677-2.92,2.498c-11.947,10.037-24.815,18.997-38.483,26.747
	c-34.842,19.741-74.768,31.544-117.349,32.965c-2.676,0.089-5.374,0.133-8.072,0.144c-2.842,0.011-5.663-0.033-8.483-0.122
	c-35.808-1.077-69.783-9.526-100.439-23.861c-19.997-9.36-38.583-21.229-55.349-35.186c-6.473-5.385-12.68-11.092-18.598-17.088
	c-3.187-3.231-6.295-6.551-9.316-9.959c-39.949-45.045-64.265-104.269-64.409-169.2C-0.321,115.195,114.03,0.323,255.417,0.001
	C396.793-0.321,511.677,114.019,511.999,255.406z"/>
<path style="fill:#7C7871;" d="M164.993,446.979c-0.6,24.893-8.016,36.463-17.321,41.037c-5.907-2.765-11.68-5.751-17.332-8.949
	c-13.479-7.606-26.203-16.399-38.017-26.237c-6.473-5.385-12.68-11.092-18.598-17.088c-13.812-23.539-26.892-54.339-28.391-88.125
	c-0.533-11.736,0.344-23.827,3.076-36.096c0,0,5.552,16.655,34.42,24.427c10.992,2.953,25.781,9.626,39.782,20.618
	c0.133,0.111,0.278,0.222,0.422,0.333c0.044,0.033,0.089,0.067,0.122,0.1C145.696,374.886,166.037,404.032,164.993,446.979z"/>
<path style="fill:#68635B;" d="M130.341,479.067c-13.479-7.606-26.203-16.399-38.017-26.237
	c-6.473-5.385-12.68-11.092-18.598-17.088c-13.812-23.539-26.892-54.339-28.391-88.125c-0.533-11.736,0.344-23.827,3.076-36.096
	c0,0,11.103,97.707,81.053,124.355C164.338,449.166,151.747,465.754,130.341,479.067z"/>
<path style="fill:#DD9033;" d="M459.825,303.56c-8.583,10.481-18.886,17.221-30.711,20.074c-2.432,0.588-4.93,1.01-7.495,1.266
	c-0.733,0.078-1.455,0.167-2.154,0.3c-8.672,1.443-14.9,6.229-18.553,14.245c-0.122,0.255-0.244,0.533-0.355,0.799
	c-0.744,1.765-1.355,3.642-1.81,5.585c-1.865,7.783-1.51,16.755,0.788,24.938c0.766,2.742,1.754,5.385,2.953,7.872
	c1.277,2.72,2.82,5.252,4.597,7.495c5.629,7.106,9.937,14.623,12.88,22.439c1.332,3.509,2.387,7.062,3.153,10.681v0.011
	c2.132,9.804,2.232,19.997,0.3,30.378c-0.966,0.844-1.943,1.677-2.92,2.498c-5.929,4.974-12.08,9.693-18.442,14.123
	c-6.462,4.508-13.157,8.716-20.041,12.624c0.378-2.154,1.299-4.241,2.765-6.051c1.232-1.543,28.146-35.907,1.699-69.805
	c-0.1-0.122-0.189-0.244-0.289-0.366c-1.932-2.443-3.697-5.063-5.274-7.817c-5.163-8.982-8.394-19.419-9.526-30.001
	c-0.378-3.497-0.522-7.017-0.422-10.504c0.222-8.572,1.876-16.966,5.052-24.482c2.631-6.229,6.129-11.625,10.392-16.111
	c1.921-2.032,3.997-3.875,6.218-5.518c7.328-5.463,16.222-8.827,26.325-9.848c2.309-0.233,4.508-0.722,6.617-1.499
	c2.21-0.799,4.319-1.899,6.329-3.309c2.576-1.788,5.008-4.086,7.306-6.895c4.663-5.696,13.057-6.529,18.753-1.876
	c0.933,0.766,1.743,1.632,2.409,2.576C463.778,292.157,463.723,298.796,459.825,303.56z"/>
<path style="fill:#F0A037;" d="M459.825,303.56c-8.583,10.481-18.886,17.221-30.711,20.074c-2.432,0.588-4.93,1.01-7.495,1.266
	c-0.733,0.078-1.455,0.167-2.154,0.3c-8.672,1.443-14.9,6.229-18.553,14.245c-0.122,0.255-0.244,0.533-0.355,0.799
	c-0.744,1.765-1.355,3.642-1.81,5.585c-1.865,7.783-1.51,16.755,0.788,24.938c0.766,2.742,1.754,5.385,2.953,7.872
	c1.277,2.72,2.82,5.252,4.597,7.495c5.629,7.106,9.937,14.623,12.88,22.439c1.332,3.509,2.387,7.062,3.153,10.681v0.011
	c2.132,9.804,2.232,19.997,0.3,30.378c-0.966,0.844-1.943,1.677-2.92,2.498c-5.929,4.974-12.08,9.693-18.442,14.123
	c6.218-13.268,11.658-35.574-5.585-57.681c-0.1-0.122-0.189-0.244-0.289-0.366c-1.932-2.443-3.697-5.063-5.274-7.817
	c-5.163-8.982-8.394-19.419-9.526-30.001c-0.378-3.497-0.522-7.017-0.422-10.504c0.222-8.572,1.876-16.966,5.052-24.482
	c2.631-6.229,6.129-11.625,10.392-16.111c1.921-2.032,3.997-3.875,6.218-5.518c7.328-5.463,16.222-8.827,26.325-9.848
	c2.309-0.233,4.508-0.722,6.617-1.499c2.21-0.799,4.319-1.899,6.329-3.309c2.576-1.788,5.008-4.086,7.306-6.895
	c2.831-3.453,7.028-5.118,11.17-4.852C463.778,292.157,463.723,298.796,459.825,303.56z"/>
<path style="fill:#F2F2F2;" d="M420.495,452.14c-42.414,35.63-96.564,57.736-155.832,59.713c-2.676,0.089-5.374,0.133-8.072,0.144
	c-2.842,0.011-5.663-0.033-8.483-0.122c-46.6-1.41-90.091-15.278-127.219-38.417c-10.004-6.218-19.553-13.124-28.568-20.63
	c29.878-30.822,68.373-53.273,111.608-63.476c8.616-2.032,17.41-3.575,26.37-4.597c5.874-0.688,11.803-1.133,17.809-1.355
	c2.687-0.111,5.385-0.155,8.105-0.167c2.831-0.011,5.651,0.033,8.449,0.144C325.652,385.444,380.624,411.37,420.495,452.14z"/>
<path style="fill:#E6E6E6;" d="M230.299,384.756l-11.947,14.645c0,0-63.077,25.726-97.463,74.058
	c-10.004-6.218-19.553-13.124-28.568-20.63c29.878-30.822,68.373-53.273,111.608-63.477
	C212.545,387.32,221.338,385.777,230.299,384.756z"/>
<polyline style="fill:#E0B775;" points="309.253,389.352 256.591,457.259 203.929,389.352 "/>
<path style="fill:#E6E6E6;" d="M264.663,446.855v64.998c-2.676,0.089-5.374,0.133-8.072,0.144c-2.842,0.011-5.663-0.033-8.483-0.122
	v-65.553l8.483,10.937L264.663,446.855z"/>
<g>
	<path style="fill:#EFC881;" d="M187.233,242.86c0-17.945-16.76-32.492-37.435-32.492s-37.435,14.547-37.435,32.492
		s16.76,45.1,37.435,45.1S187.233,260.805,187.233,242.86z"/>
	<path style="fill:#EFC881;" d="M399.635,242.86c0-17.945-16.76-32.492-37.435-32.492c-20.675,0-37.435,14.547-37.435,32.492
		s16.76,45.1,37.435,45.1C382.875,287.96,399.635,260.805,399.635,242.86z"/>
</g>
<g>
	<path style="fill:#E0B775;" d="M385.07,248.222c0-10.589-6.462-19.174-14.434-19.174s-14.434,8.584-14.434,19.174
		c0,10.589,6.462,11.957,14.434,11.957C378.608,260.179,385.07,258.811,385.07,248.222z"/>
	<path style="fill:#E0B775;" d="M155.791,248.222c0-10.589-6.462-19.174-14.434-19.174c-7.972,0-14.434,8.584-14.434,19.174
		c0,10.589,6.462,11.957,14.434,11.957C149.329,260.179,155.791,258.811,155.791,248.222z"/>
</g>
<path style="fill:#F9D387;" d="M371.341,211.958v66.741c0,12.602-1.654,24.793-4.741,36.296c-1.133,4.23-2.443,8.35-3.964,12.369
	c-12.524,33.676-37.706,60.101-68.995,72.037c-0.733,0.289-1.466,0.566-2.198,0.822c-11.17,4.008-23.083,6.151-35.441,6.151
	c-12.369,0-24.282-2.143-35.441-6.151c-0.744-0.255-1.477-0.533-2.21-0.822c-23.239-8.86-43.091-25.715-56.915-47.61
	c-4.797-7.583-8.86-15.766-12.08-24.427c-1.521-4.019-2.831-8.139-3.953-12.369c-3.098-11.503-4.752-23.694-4.752-36.296v-66.741
	c0-40.215,16.799-76.079,43.047-99.473c19.775-17.643,44.923-28.202,72.303-28.202c31.844,0,60.678,14.29,81.552,37.406
	C358.428,144.784,371.341,176.706,371.341,211.958z"/>
<g>
	<path style="fill:#EFC881;" d="M161.094,309.143l-0.155-1.189c-1.619-12.394-8.703-23.084-18.896-28.517l-1.389-0.741
		c0,12.608,1.651,24.795,4.744,36.301c1.127,4.223,2.438,8.343,3.958,12.361c12.531,33.675,37.71,60.11,68.997,72.036
		c-6.144-27.8-20.859-50.567-39.985-62.658C169.105,330.88,162.621,320.834,161.094,309.143z"/>
	<path style="fill:#EFC881;" d="M351.058,307.955l-0.155,1.189c-1.527,11.689-8.011,21.737-17.276,27.595
		c-19.125,12.091-33.84,34.858-39.985,62.658c31.287-11.926,56.466-38.361,68.997-72.036c1.52-4.019,2.831-8.14,3.958-12.361
		c3.093-11.505,4.744-23.693,4.744-36.301l-1.389,0.741C359.761,284.871,352.677,295.561,351.058,307.955z"/>
	<path style="fill:#EFC881;" d="M284.893,142.541c0,0-89.191-3.631-135.092,67.829c-3.364,5.23-6.406,9.071-9.149,11.692v-10.104
		c0-40.215,16.799-76.079,43.047-99.473L284.893,142.541z"/>
</g>
<g>
	<path style="fill:#68635B;" d="M154.957,148.631c0,0-24.861,26.653-24.861,66.602c0,0,0.01-0.006,0.03-0.017
		c4.727-2.619,10.529,0.829,10.529,6.233v15.966l31.723-90.88l-9.666-9.666L154.957,148.631z"/>
	<path style="fill:#68635B;" d="M357.041,148.631c0,0,24.861,26.653,24.861,66.602c0,0-0.01-0.006-0.03-0.017
		c-4.727-2.619-10.529,0.829-10.529,6.233v15.966l-31.723-90.88l9.666-9.666L357.041,148.631z"/>
</g>
<path style="fill:#F2F2F2;" d="M357.041,45.889v102.748c-56.004-7.395-112.719-8.605-168.967-3.642
	c-11.059,0.977-22.106,2.187-33.121,3.642V45.889c11.014-1.455,22.062-2.665,33.121-3.642
	C244.322,37.284,301.036,38.494,357.041,45.889z"/>
<circle style="fill:#E6E6E6;" cx="283.029" cy="473.27" r="8.445"/>
<polygon style="fill:#EB305B;" points="290.419,78.954 270.988,78.954 270.988,59.523 241.01,59.523 241.01,78.954 221.579,78.954 
	221.579,108.932 241.01,108.932 241.01,128.363 270.988,128.363 270.988,108.932 290.419,108.932 "/>
<path style="fill:#E6E6E6;" d="M188.073,42.247v102.748c-11.059,0.977-22.106,2.187-33.121,3.642V45.889
	C165.967,44.434,177.015,43.224,188.073,42.247z"/>
<path style="fill:#5EC2D3;" d="M227.915,144.996c0,25.071-20.33,45.39-45.39,45.39c-8.494,0-16.433-2.332-23.228-6.395
	c-13.268-7.905-22.162-22.417-22.162-38.994c0-25.071,20.319-45.39,45.39-45.39c6.307,0,12.313,1.288,17.765,3.609
	C216.523,110.132,227.915,126.232,227.915,144.996z"/>
<path style="fill:#79D8E2;" d="M227.915,144.996c0,25.071-20.33,45.39-45.39,45.39c-8.494,0-16.433-2.332-23.228-6.395
	c38.361-32.032,40.993-80.775,40.993-80.775C216.523,110.132,227.915,126.232,227.915,144.996z"/>
<circle style="fill:#F2F2F2;" cx="182.524" cy="144.995" r="9.602"/>
<g>
	<path style="fill:#68635B;" d="M437.575,312.631c0,0-7.317-3.131-12.002-15.744c2.21-0.799,4.319-1.899,6.329-3.309
		C431.901,293.578,431.468,300.418,437.575,312.631z"/>
	<path style="fill:#68635B;" d="M429.114,323.634c-2.432,0.588-4.93,1.01-7.495,1.266c-0.733,0.078-1.455,0.167-2.154,0.3
		c-2.931-4.141-5.763-10.082-5.763-17.565C413.703,307.635,416.912,315.229,429.114,323.634z"/>
	<path style="fill:#68635B;" d="M403.699,323.168c-0.389-0.167-9.615-4.375-17.288-9.415c1.921-2.032,3.997-3.875,6.218-5.518
		C395.272,312.92,398.947,318.416,403.699,323.168z"/>
	<path style="fill:#68635B;" d="M400.912,339.445c-0.122,0.255-0.244,0.533-0.355,0.799c-0.744,1.765-1.355,3.642-1.81,5.585
		c0,0-14.267,1.221-17.621-13.879C381.493,332.517,388.166,339.445,400.912,339.445z"/>
	<path style="fill:#68635B;" d="M390.942,353.157c0,0-6.939,7.328-19.553,11.692c-0.378-3.497-0.522-7.017-0.422-10.504
		C376.408,355.134,384.491,355.622,390.942,353.157z"/>
	<path style="fill:#68635B;" d="M402.489,378.639c-12.991-0.389-22.095-4.941-22.095-4.941c8.86,0,14.967-1.299,19.142-2.931
		C400.302,373.509,401.29,376.152,402.489,378.639z"/>
	<path style="fill:#68635B;" d="M400.379,390.908c0,0-5.718,7.195-13.901,12.125c-0.1-0.122-0.189-0.244-0.289-0.366
		c-1.932-2.443-3.697-5.063-5.274-7.817C386.667,394.75,395.938,394.061,400.379,390.908z"/>
	<path style="fill:#68635B;" d="M423.119,419.254c-11.536-2.831-24.96-10.581-24.96-10.581c9.96,0.788,17.077,0.455,21.807-0.1
		C421.298,412.082,422.352,415.635,423.119,419.254z"/>
</g>
<path style="fill:#F2F2F2;" d="M95.044,362.04l-21.651-8.882l17.21,38.306l-32.754-32.754l3.331,22.761
	c-11.936-11.936-15.844-33.853-15.844-33.853c-0.533-11.736,0.344-23.827,3.076-36.096c0,0,5.552,16.655,34.42,24.427
	c10.992,2.953,25.781,9.626,39.782,20.618c-8.338-6.107-40.893-10.626-40.893-10.626L95.044,362.04z"/>
<path style="fill:#E6E6E6;" d="M57.848,358.709l3.331,22.761c-11.936-11.936-15.844-33.853-15.844-33.853
	c-0.533-11.736,0.344-23.827,3.076-36.096c0,0,2.765,24.294,14.212,51.963L57.848,358.709z"/>
<g>
	<path style="fill:#4D4D4D;" d="M320.205,245.043v22.512c0,4.213-3.408,7.62-7.62,7.62c-4.063,0-7.381-3.179-7.6-7.193
		c-0.01-0.139-0.01-0.289-0.01-0.427v-22.512c0-4.213,3.408-7.62,7.61-7.62c2.106,0,4.014,0.854,5.384,2.225
		c0.984,0.984,1.699,2.235,2.026,3.626C320.135,243.841,320.205,244.437,320.205,245.043z"/>
	<path style="fill:#4D4D4D;" d="M199.41,275.174L199.41,275.174c-4.206,0-7.617-3.41-7.617-7.617v-22.518
		c0-4.206,3.41-7.617,7.617-7.617l0,0c4.206,0,7.617,3.41,7.617,7.617v22.518C207.026,271.764,203.617,275.174,199.41,275.174z"/>
</g>
<g>
	<path style="fill:#68635B;" d="M331.096,217.437c0-10.22-8.285-18.506-18.506-18.506s-18.506,8.285-18.506,18.506l0,0
		C304.305,207.217,320.876,207.217,331.096,217.437L331.096,217.437z"/>
	<path style="fill:#68635B;" d="M217.915,217.437c0-10.22-8.285-18.506-18.506-18.506c-10.22,0-18.506,8.285-18.506,18.506l0,0
		C191.125,207.217,207.695,207.217,217.915,217.437L217.915,217.437z"/>
</g>
<g>
	<path style="fill:#666666;" d="M320.2,245.043v22.512c0,4.213-3.408,7.62-7.62,7.62c-4.064,0-7.381-3.179-7.6-7.193
		c8.524-8.763,12.845-18.11,15.01-24.707C320.131,243.841,320.2,244.437,320.2,245.043z"/>
	<path style="fill:#666666;" d="M207.02,245.043v22.512c0,4.213-3.408,7.62-7.62,7.62c-4.064,0-7.381-3.179-7.6-7.193
		c8.524-8.763,12.845-18.11,15.01-24.707C206.95,243.841,207.02,244.437,207.02,245.043z"/>
</g>
<path style="fill:#E0B775;" d="M274.089,298.675c0-0.567-0.114-1.121-0.331-1.658c-2.302-5.685-3.931-11.609-3.882-17.743
	c0.006-0.685,0.008-1.383,0.008-2.095c0-34.249-6.216-54.758-13.882-54.758c-7.667,0-13.882,20.51-13.882,54.758
	c0,0.712,0.002,1.41,0.008,2.095c0.049,6.133-1.581,12.058-3.882,17.743c-0.218,0.536-0.331,1.09-0.331,1.658
	c0,2.796,2.754,5.276,7.016,6.867c2.535,7.915,6.55,9.008,11.071,9.008c4.521,0,8.537-1.093,11.071-9.008
	C271.336,303.952,274.089,301.47,274.089,298.675z"/>
<path style="fill:#4D4D4D;" d="M297.417,332.599c-0.011,0.111-0.011,0.211-0.022,0.322c-0.044,0.633-0.111,1.266-0.211,1.888
	c-0.078,0.489-0.167,0.966-0.278,1.443c-0.078,0.344-0.167,0.688-0.255,1.033c-0.366,1.321-0.855,2.609-1.466,3.864
	c-1.943,4.064-5.063,7.728-9.071,10.77c-7.572,5.729-18.254,9.304-30.112,9.304c-11.858,0-22.539-3.575-30.112-9.304
	c-4.008-3.042-7.128-6.706-9.071-10.77c-0.611-1.255-1.099-2.543-1.466-3.864c-0.089-0.344-0.178-0.688-0.255-1.033
	c-0.111-0.477-0.2-0.955-0.278-1.443c-0.1-0.622-0.167-1.255-0.211-1.888c-0.011-0.111-0.011-0.211-0.022-0.322
	c1.454,0.289,2.931,0.566,4.441,0.822c11.159,1.932,23.705,3.009,36.973,3.009s25.815-1.077,36.973-3.009
	C294.486,333.165,295.962,332.887,297.417,332.599z"/>
<path style="fill:#F2F2F2;" d="M297.417,332.599c-0.011,0.111-0.011,0.211-0.022,0.322c-0.044,0.633-0.111,1.266-0.211,1.888
	c-0.078,0.489-0.167,0.966-0.278,1.443c-0.078,0.344-0.167,0.688-0.255,1.033c-0.366,1.321-0.855,2.609-1.466,3.864
	c-3.997,0.622-8.161,1.155-12.458,1.577c-8.449,0.844-17.421,1.288-26.725,1.288c-9.304,0-18.276-0.444-26.725-1.288
	c-4.297-0.422-8.461-0.955-12.458-1.577c-0.611-1.255-1.099-2.543-1.466-3.864c-0.089-0.344-0.178-0.688-0.255-1.033
	c-0.111-0.477-0.2-0.955-0.278-1.443c-0.1-0.622-0.167-1.255-0.211-1.888c-0.011-0.111-0.011-0.211-0.022-0.322
	c1.455,0.289,2.931,0.566,4.441,0.822c11.159,1.932,23.705,3.009,36.973,3.009c13.268,0,25.815-1.077,36.973-3.009
	C294.486,333.165,295.962,332.887,297.417,332.599z"/>
<path style="fill:#FFFFFF;" d="M292.976,333.42c-1.81,2.587-4.13,4.952-6.862,7.028c-1.066,0.811-2.198,1.577-3.386,2.276
	c-8.449,0.844-17.421,1.288-26.725,1.288c-9.304,0-18.276-0.444-26.725-1.288c-1.188-0.699-2.321-1.466-3.386-2.276
	c-2.731-2.076-5.052-4.441-6.862-7.028c11.159,1.932,23.705,3.009,36.973,3.009S281.817,335.352,292.976,333.42z"/>
<path style="fill:#EFC881;" d="M277.766,370.073c0-4.541-9.743,0.484-21.763,0.484c-12.02,0-21.763-5.024-21.763-0.484
	c0,4.54,9.743,8.222,21.763,8.222C268.021,378.295,277.766,374.614,277.766,370.073z"/>
<g>
</g>
<g>
</g>
<g>
</g>
<g>
</g>
<g>
</g>
<g>
</g>
<g>
</g>
<g>
</g>
<g>
</g>
<g>
</g>
<g>
</g>
<g>
</g>
<g>
</g>
<g>
</g>
<g>
</g>
</svg>
