<?xml version="1.0" encoding="iso-8859-1"?>
<!-- Generator: Adobe Illustrator 19.0.0, SVG Export Plug-In . SVG Version: 6.00 Build 0)  -->
<svg version="1.1" id="Layer_1" xmlns="http://www.w3.org/2000/svg" xmlns:xlink="http://www.w3.org/1999/xlink" x="0px" y="0px"
	 viewBox="0 0 504 504" style="enable-background:new 0 0 504 504;" xml:space="preserve">
<circle style="fill:#90DFAA;" cx="252" cy="252" r="252"/>
<rect x="136.4" y="146" style="fill:#324A5E;" width="231.1" height="262.2"/>
<rect x="222.7" y="354.8" style="fill:#54C0EB;" width="58.6" height="55.1"/>
<g>
	<rect x="155" y="163.7" style="fill:#E6E9EE;" width="33.3" height="45.8"/>
	<rect x="208.6" y="163.7" style="fill:#E6E9EE;" width="33.3" height="45.8"/>
	<rect x="262.1" y="163.7" style="fill:#E6E9EE;" width="33.3" height="45.8"/>
	<rect x="315.7" y="163.7" style="fill:#E6E9EE;" width="33.3" height="45.8"/>
	<rect x="155" y="226" style="fill:#E6E9EE;" width="33.3" height="45.8"/>
	<rect x="208.6" y="226" style="fill:#E6E9EE;" width="33.3" height="45.8"/>
	<rect x="262.1" y="226" style="fill:#E6E9EE;" width="33.3" height="45.8"/>
	<rect x="315.7" y="226" style="fill:#E6E9EE;" width="33.3" height="45.8"/>
	<rect x="155" y="288.2" style="fill:#E6E9EE;" width="33.3" height="45.8"/>
	<rect x="208.6" y="288.2" style="fill:#E6E9EE;" width="33.3" height="45.8"/>
	<rect x="262.1" y="288.2" style="fill:#E6E9EE;" width="33.3" height="45.8"/>
	<rect x="315.7" y="288.2" style="fill:#E6E9EE;" width="33.3" height="45.8"/>
</g>
<rect x="162.1" y="104.4" style="fill:#FFD05B;" width="179.8" height="42.8"/>
<g>
	<path style="fill:#FF7058;" d="M198,112.3h6.1v27.3H198v-10.7h-10.8v10.7H181v-27.3h6.1v11.4H198V112.3z"/>
	<path style="fill:#FF7058;" d="M237.2,135.8c-2.8,2.7-6.2,4-10.2,4s-7.4-1.3-10.2-4s-4.1-6-4.1-10s1.4-7.4,4.1-10
		c2.8-2.7,6.2-4,10.2-4s7.4,1.3,10.2,4s4.1,6,4.1,10S239.9,133.1,237.2,135.8z M235.1,125.8c0-2.4-0.8-4.5-2.3-6.2
		c-1.6-1.7-3.5-2.6-5.8-2.6s-4.2,0.9-5.8,2.6s-2.3,3.8-2.3,6.2s0.8,4.5,2.3,6.2c1.6,1.7,3.5,2.6,5.8,2.6s4.2-0.9,5.8-2.6
		C234.3,130.3,235.1,128.2,235.1,125.8z"/>
	<path style="fill:#FF7058;" d="M260.7,117.6v22h-6.1v-22h-7.7v-5.3h21.5v5.3C268.4,117.6,260.7,117.6,260.7,117.6z"/>
	<path style="fill:#FF7058;" d="M296,112.3v5.4h-13.6v5.6h12.2v5.2h-12.2v5.7h14v5.4h-20.1v-27.3L296,112.3L296,112.3z"/>
	<path style="fill:#FF7058;" d="M305.2,139.6v-27.3h6.1v21.9H323v5.4L305.2,139.6L305.2,139.6z"/>
</g>
<path style="fill:#2C9984;" d="M54.3,408.2C100.5,466.5,171.9,504,252,504s151.5-37.5,197.7-95.8H54.3z"/>
<g>
</g>
<g>
</g>
<g>
</g>
<g>
</g>
<g>
</g>
<g>
</g>
<g>
</g>
<g>
</g>
<g>
</g>
<g>
</g>
<g>
</g>
<g>
</g>
<g>
</g>
<g>
</g>
<g>
</g>
</svg>
